<mxfile host="app.diagrams.net" agent="Mozilla/5.0 (Macintosh; Intel Mac OS X 10_15_7) AppleWebKit/537.36 (KHTML, like Gecko) Chrome/127.0.0.0 Safari/537.36" version="24.7.17">
  <diagram id="R2lEEEUBdFMjLlhIrx00" name="Page-1">
    <mxGraphModel dx="465" dy="312" grid="1" gridSize="10" guides="1" tooltips="1" connect="1" arrows="1" fold="1" page="1" pageScale="1" pageWidth="1654" pageHeight="1169" math="0" shadow="0" extFonts="Permanent Marker^https://fonts.googleapis.com/css?family=Permanent+Marker">
      <root>
        <mxCell id="0" />
        <mxCell id="1" parent="0" />
        <mxCell id="6Uo8ekdHkGyD1nUxnTY2-1" value="Profile" style="whiteSpace=wrap;html=1;align=center;direction=west;labelBackgroundColor=none;" parent="1" vertex="1">
          <mxGeometry x="1087" y="100" width="100" height="40" as="geometry" />
        </mxCell>
        <mxCell id="6Uo8ekdHkGyD1nUxnTY2-3" value="DOB" style="ellipse;whiteSpace=wrap;html=1;align=center;labelBackgroundColor=none;" parent="1" vertex="1">
          <mxGeometry x="1087" y="30" width="100" height="40" as="geometry" />
        </mxCell>
        <mxCell id="6Uo8ekdHkGyD1nUxnTY2-5" value="email" style="ellipse;whiteSpace=wrap;html=1;align=center;labelBackgroundColor=none;" parent="1" vertex="1">
          <mxGeometry x="967" y="50" width="100" height="40" as="geometry" />
        </mxCell>
        <mxCell id="6Uo8ekdHkGyD1nUxnTY2-6" value="address" style="ellipse;whiteSpace=wrap;html=1;align=center;labelBackgroundColor=none;" parent="1" vertex="1">
          <mxGeometry x="1217" y="40" width="100" height="40" as="geometry" />
        </mxCell>
        <mxCell id="6Uo8ekdHkGyD1nUxnTY2-15" value="national ID" style="ellipse;whiteSpace=wrap;html=1;align=center;fontStyle=4;labelBackgroundColor=none;" parent="1" vertex="1">
          <mxGeometry x="1237" y="100" width="100" height="40" as="geometry" />
        </mxCell>
        <mxCell id="FRmwN27znmXdulfrOmkW-1" value="first" style="ellipse;whiteSpace=wrap;html=1;align=center;labelBackgroundColor=none;" parent="1" vertex="1">
          <mxGeometry x="847" y="70" width="50" height="30" as="geometry" />
        </mxCell>
        <mxCell id="FRmwN27znmXdulfrOmkW-2" value="last" style="ellipse;whiteSpace=wrap;html=1;align=center;labelBackgroundColor=none;" parent="1" vertex="1">
          <mxGeometry x="817" y="110" width="50" height="30" as="geometry" />
        </mxCell>
        <mxCell id="FRmwN27znmXdulfrOmkW-9" value="has" style="shape=rhombus;double=1;perimeter=rhombusPerimeter;whiteSpace=wrap;html=1;align=center;labelBackgroundColor=none;" parent="1" vertex="1">
          <mxGeometry x="1077" y="170" width="120" height="60" as="geometry" />
        </mxCell>
        <mxCell id="FRmwN27znmXdulfrOmkW-11" value="account" style="shape=ext;margin=3;double=1;whiteSpace=wrap;html=1;align=center;labelBackgroundColor=none;" parent="1" vertex="1">
          <mxGeometry x="1087" y="270" width="100" height="40" as="geometry" />
        </mxCell>
        <mxCell id="FRmwN27znmXdulfrOmkW-12" value="mobile number" style="ellipse;whiteSpace=wrap;html=1;align=center;fontStyle=4;labelBackgroundColor=none;" parent="1" vertex="1">
          <mxGeometry x="1187" y="220" width="100" height="40" as="geometry" />
        </mxCell>
        <mxCell id="FRmwN27znmXdulfrOmkW-13" value="total points earned" style="ellipse;whiteSpace=wrap;html=1;align=center;labelBackgroundColor=none;" parent="1" vertex="1">
          <mxGeometry x="1197" y="320" width="100" height="40" as="geometry" />
        </mxCell>
        <mxCell id="FRmwN27znmXdulfrOmkW-14" value="line balance" style="ellipse;whiteSpace=wrap;html=1;align=center;labelBackgroundColor=none;" parent="1" vertex="1">
          <mxGeometry x="1207" y="270" width="100" height="40" as="geometry" />
        </mxCell>
        <mxCell id="FRmwN27znmXdulfrOmkW-15" value="type" style="ellipse;whiteSpace=wrap;html=1;align=center;labelBackgroundColor=none;" parent="1" vertex="1">
          <mxGeometry x="967" y="180" width="100" height="40" as="geometry" />
        </mxCell>
        <mxCell id="FRmwN27znmXdulfrOmkW-16" value="start date" style="ellipse;whiteSpace=wrap;html=1;align=center;labelBackgroundColor=none;" parent="1" vertex="1">
          <mxGeometry x="937" y="290" width="100" height="40" as="geometry" />
        </mxCell>
        <mxCell id="FRmwN27znmXdulfrOmkW-30" value="subscribed to" style="shape=rhombus;perimeter=rhombusPerimeter;whiteSpace=wrap;html=1;align=center;" parent="1" vertex="1">
          <mxGeometry x="817" y="390" width="120" height="60" as="geometry" />
        </mxCell>
        <mxCell id="FRmwN27znmXdulfrOmkW-32" value="plan" style="whiteSpace=wrap;html=1;align=center;" parent="1" vertex="1">
          <mxGeometry x="830" y="565" width="100" height="40" as="geometry" />
        </mxCell>
        <mxCell id="FRmwN27znmXdulfrOmkW-34" value="subscription date" style="ellipse;whiteSpace=wrap;html=1;align=center;" parent="1" vertex="1">
          <mxGeometry x="700" y="340" width="100" height="40" as="geometry" />
        </mxCell>
        <mxCell id="FRmwN27znmXdulfrOmkW-35" value="status" style="ellipse;whiteSpace=wrap;html=1;align=center;" parent="1" vertex="1">
          <mxGeometry x="670" y="390" width="100" height="40" as="geometry" />
        </mxCell>
        <mxCell id="FRmwN27znmXdulfrOmkW-39" value="description" style="ellipse;whiteSpace=wrap;html=1;align=center;" parent="1" vertex="1">
          <mxGeometry x="907" y="480" width="100" height="40" as="geometry" />
        </mxCell>
        <mxCell id="FRmwN27znmXdulfrOmkW-40" value="minutes" style="ellipse;whiteSpace=wrap;html=1;align=center;" parent="1" vertex="1">
          <mxGeometry x="627" y="605" width="100" height="40" as="geometry" />
        </mxCell>
        <mxCell id="FRmwN27znmXdulfrOmkW-42" value="sms" style="ellipse;whiteSpace=wrap;html=1;align=center;" parent="1" vertex="1">
          <mxGeometry x="620" y="555" width="100" height="40" as="geometry" />
        </mxCell>
        <mxCell id="FRmwN27znmXdulfrOmkW-43" value="price" style="ellipse;whiteSpace=wrap;html=1;align=center;" parent="1" vertex="1">
          <mxGeometry x="710" y="525" width="100" height="40" as="geometry" />
        </mxCell>
        <mxCell id="FRmwN27znmXdulfrOmkW-44" value="name" style="ellipse;whiteSpace=wrap;html=1;align=center;" parent="1" vertex="1">
          <mxGeometry x="920" y="625" width="100" height="40" as="geometry" />
        </mxCell>
        <mxCell id="FRmwN27znmXdulfrOmkW-45" value="plan ID" style="ellipse;whiteSpace=wrap;html=1;align=center;fontStyle=4;" parent="1" vertex="1">
          <mxGeometry x="967" y="570" width="100" height="40" as="geometry" />
        </mxCell>
        <mxCell id="FRmwN27znmXdulfrOmkW-46" value="internet GB" style="ellipse;whiteSpace=wrap;html=1;align=center;" parent="1" vertex="1">
          <mxGeometry x="702" y="635" width="100" height="40" as="geometry" />
        </mxCell>
        <mxCell id="pJCZ4jbb1nqrOX9LuIZq-1" value="usage" style="whiteSpace=wrap;html=1;align=center;" parent="1" vertex="1">
          <mxGeometry x="1307" y="585" width="100" height="40" as="geometry" />
        </mxCell>
        <mxCell id="pJCZ4jbb1nqrOX9LuIZq-2" value="usage ID" style="ellipse;whiteSpace=wrap;html=1;align=center;fontStyle=4;" parent="1" vertex="1">
          <mxGeometry x="1457" y="545" width="100" height="40" as="geometry" />
        </mxCell>
        <mxCell id="pJCZ4jbb1nqrOX9LuIZq-4" value="data consumption" style="ellipse;whiteSpace=wrap;html=1;align=center;" parent="1" vertex="1">
          <mxGeometry x="1207" y="645" width="100" height="40" as="geometry" />
        </mxCell>
        <mxCell id="pJCZ4jbb1nqrOX9LuIZq-5" value="sms sent" style="ellipse;whiteSpace=wrap;html=1;align=center;" parent="1" vertex="1">
          <mxGeometry x="1170" y="585" width="100" height="40" as="geometry" />
        </mxCell>
        <mxCell id="pJCZ4jbb1nqrOX9LuIZq-6" value="minutes used" style="ellipse;whiteSpace=wrap;html=1;align=center;" parent="1" vertex="1">
          <mxGeometry x="1170" y="525" width="100" height="40" as="geometry" />
        </mxCell>
        <mxCell id="pJCZ4jbb1nqrOX9LuIZq-7" value="end date" style="ellipse;whiteSpace=wrap;html=1;align=center;" parent="1" vertex="1">
          <mxGeometry x="1407" y="660" width="100" height="40" as="geometry" />
        </mxCell>
        <mxCell id="pJCZ4jbb1nqrOX9LuIZq-8" value="start date" style="ellipse;whiteSpace=wrap;html=1;align=center;" parent="1" vertex="1">
          <mxGeometry x="1457" y="595" width="100" height="40" as="geometry" />
        </mxCell>
        <mxCell id="pJCZ4jbb1nqrOX9LuIZq-15" value="" style="shape=rhombus;perimeter=rhombusPerimeter;whiteSpace=wrap;html=1;align=center;" parent="1" vertex="1">
          <mxGeometry x="1114" y="440" width="83" height="65" as="geometry" />
        </mxCell>
        <mxCell id="pJCZ4jbb1nqrOX9LuIZq-17" value="" style="endArrow=none;html=1;rounded=0;exitX=1;exitY=0;exitDx=0;exitDy=0;entryX=0;entryY=0.5;entryDx=0;entryDy=0;" parent="1" source="FRmwN27znmXdulfrOmkW-32" target="pJCZ4jbb1nqrOX9LuIZq-15" edge="1">
          <mxGeometry relative="1" as="geometry">
            <mxPoint x="1057" y="520" as="sourcePoint" />
            <mxPoint x="1217" y="520" as="targetPoint" />
          </mxGeometry>
        </mxCell>
        <mxCell id="pJCZ4jbb1nqrOX9LuIZq-18" value="" style="endArrow=none;html=1;rounded=0;entryX=0.5;entryY=0;entryDx=0;entryDy=0;" parent="1" target="pJCZ4jbb1nqrOX9LuIZq-15" edge="1">
          <mxGeometry relative="1" as="geometry">
            <mxPoint x="1157" y="311" as="sourcePoint" />
            <mxPoint x="1440" y="400" as="targetPoint" />
          </mxGeometry>
        </mxCell>
        <mxCell id="pJCZ4jbb1nqrOX9LuIZq-19" value="" style="endArrow=none;html=1;rounded=0;exitX=1;exitY=0.5;exitDx=0;exitDy=0;entryX=0.5;entryY=0;entryDx=0;entryDy=0;" parent="1" source="pJCZ4jbb1nqrOX9LuIZq-15" target="pJCZ4jbb1nqrOX9LuIZq-1" edge="1">
          <mxGeometry relative="1" as="geometry">
            <mxPoint x="1280" y="400" as="sourcePoint" />
            <mxPoint x="1440" y="400" as="targetPoint" />
          </mxGeometry>
        </mxCell>
        <mxCell id="pJCZ4jbb1nqrOX9LuIZq-21" value="" style="endArrow=none;html=1;rounded=0;entryX=0.5;entryY=1;entryDx=0;entryDy=0;exitX=0.5;exitY=0;exitDx=0;exitDy=0;" parent="1" source="FRmwN27znmXdulfrOmkW-30" target="FRmwN27znmXdulfrOmkW-11" edge="1">
          <mxGeometry relative="1" as="geometry">
            <mxPoint x="890" y="410" as="sourcePoint" />
            <mxPoint x="1050" y="410" as="targetPoint" />
            <Array as="points" />
          </mxGeometry>
        </mxCell>
        <mxCell id="pJCZ4jbb1nqrOX9LuIZq-22" value="" style="endArrow=none;html=1;rounded=0;exitX=0.5;exitY=0;exitDx=0;exitDy=0;entryX=0.5;entryY=0;entryDx=0;entryDy=0;" parent="1" source="6Uo8ekdHkGyD1nUxnTY2-1" target="FRmwN27znmXdulfrOmkW-9" edge="1">
          <mxGeometry relative="1" as="geometry">
            <mxPoint x="840" y="380" as="sourcePoint" />
            <mxPoint x="1000" y="380" as="targetPoint" />
          </mxGeometry>
        </mxCell>
        <mxCell id="pJCZ4jbb1nqrOX9LuIZq-23" value="" style="endArrow=none;html=1;rounded=0;exitX=0.5;exitY=1;exitDx=0;exitDy=0;entryX=0.5;entryY=0;entryDx=0;entryDy=0;" parent="1" source="FRmwN27znmXdulfrOmkW-9" target="FRmwN27znmXdulfrOmkW-11" edge="1">
          <mxGeometry relative="1" as="geometry">
            <mxPoint x="1147" y="150" as="sourcePoint" />
            <mxPoint x="1147" y="180" as="targetPoint" />
            <Array as="points" />
          </mxGeometry>
        </mxCell>
        <mxCell id="Pvip8ezGzchFhWj7xZqE-1" value="payment" style="whiteSpace=wrap;html=1;align=center;" parent="1" vertex="1">
          <mxGeometry x="530" y="240" width="100" height="40" as="geometry" />
        </mxCell>
        <mxCell id="Pvip8ezGzchFhWj7xZqE-2" value="pays plan" style="shape=rhombus;perimeter=rhombusPerimeter;whiteSpace=wrap;html=1;align=center;" parent="1" vertex="1">
          <mxGeometry x="747" y="230" width="120" height="60" as="geometry" />
        </mxCell>
        <mxCell id="Pvip8ezGzchFhWj7xZqE-3" value="" style="endArrow=none;html=1;rounded=0;exitX=1;exitY=0.5;exitDx=0;exitDy=0;entryX=0;entryY=0.5;entryDx=0;entryDy=0;" parent="1" source="Pvip8ezGzchFhWj7xZqE-2" target="FRmwN27znmXdulfrOmkW-11" edge="1">
          <mxGeometry relative="1" as="geometry">
            <mxPoint x="877" y="260" as="sourcePoint" />
            <mxPoint x="1037" y="259.40999999999997" as="targetPoint" />
          </mxGeometry>
        </mxCell>
        <mxCell id="Pvip8ezGzchFhWj7xZqE-5" value="status" style="ellipse;whiteSpace=wrap;html=1;align=center;labelBackgroundColor=none;" parent="1" vertex="1">
          <mxGeometry x="950" y="230" width="100" height="40" as="geometry" />
        </mxCell>
        <mxCell id="Pvip8ezGzchFhWj7xZqE-7" value="" style="endArrow=none;html=1;rounded=0;entryX=0;entryY=0.5;entryDx=0;entryDy=0;exitX=1;exitY=0.5;exitDx=0;exitDy=0;" parent="1" source="Pvip8ezGzchFhWj7xZqE-1" target="Pvip8ezGzchFhWj7xZqE-2" edge="1">
          <mxGeometry relative="1" as="geometry">
            <mxPoint x="667" y="220" as="sourcePoint" />
            <mxPoint x="747" y="220" as="targetPoint" />
          </mxGeometry>
        </mxCell>
        <mxCell id="Pvip8ezGzchFhWj7xZqE-8" value="Relationship" style="shape=rhombus;perimeter=rhombusPerimeter;whiteSpace=wrap;html=1;align=center;" parent="1" vertex="1">
          <mxGeometry x="520" y="370" width="120" height="60" as="geometry" />
        </mxCell>
        <mxCell id="Pvip8ezGzchFhWj7xZqE-9" value="" style="endArrow=none;html=1;rounded=0;entryX=0.5;entryY=0;entryDx=0;entryDy=0;exitX=0.5;exitY=1;exitDx=0;exitDy=0;" parent="1" source="Pvip8ezGzchFhWj7xZqE-1" target="Pvip8ezGzchFhWj7xZqE-8" edge="1">
          <mxGeometry relative="1" as="geometry">
            <mxPoint x="500" y="300" as="sourcePoint" />
            <mxPoint x="660" y="300" as="targetPoint" />
          </mxGeometry>
        </mxCell>
        <mxCell id="Pvip8ezGzchFhWj7xZqE-10" value="" style="endArrow=none;html=1;rounded=0;entryX=0.25;entryY=0;entryDx=0;entryDy=0;exitX=1;exitY=0.5;exitDx=0;exitDy=0;" parent="1" source="Pvip8ezGzchFhWj7xZqE-8" target="FRmwN27znmXdulfrOmkW-32" edge="1">
          <mxGeometry relative="1" as="geometry">
            <mxPoint x="640" y="420" as="sourcePoint" />
            <mxPoint x="710" y="438.82" as="targetPoint" />
          </mxGeometry>
        </mxCell>
        <mxCell id="Pvip8ezGzchFhWj7xZqE-12" value="transaction amount" style="ellipse;whiteSpace=wrap;html=1;align=center;" parent="1" vertex="1">
          <mxGeometry x="560" y="170" width="100" height="40" as="geometry" />
        </mxCell>
        <mxCell id="Pvip8ezGzchFhWj7xZqE-13" value="date of payment" style="ellipse;whiteSpace=wrap;html=1;align=center;" parent="1" vertex="1">
          <mxGeometry x="450" y="170" width="100" height="40" as="geometry" />
        </mxCell>
        <mxCell id="Pvip8ezGzchFhWj7xZqE-14" value="payment method" style="ellipse;whiteSpace=wrap;html=1;align=center;" parent="1" vertex="1">
          <mxGeometry x="410" y="220" width="100" height="40" as="geometry" />
        </mxCell>
        <mxCell id="Pvip8ezGzchFhWj7xZqE-15" value="status" style="ellipse;whiteSpace=wrap;html=1;align=center;" parent="1" vertex="1">
          <mxGeometry x="410" y="280" width="100" height="40" as="geometry" />
        </mxCell>
        <mxCell id="Pvip8ezGzchFhWj7xZqE-16" value="payment ID" style="ellipse;whiteSpace=wrap;html=1;align=center;fontStyle=4;" parent="1" vertex="1">
          <mxGeometry x="647" y="200" width="100" height="40" as="geometry" />
        </mxCell>
        <mxCell id="Pvip8ezGzchFhWj7xZqE-18" value="" style="endArrow=none;html=1;rounded=0;exitX=1;exitY=0;exitDx=0;exitDy=0;" parent="1" source="Pvip8ezGzchFhWj7xZqE-15" edge="1">
          <mxGeometry relative="1" as="geometry">
            <mxPoint x="470" y="270" as="sourcePoint" />
            <mxPoint x="530" y="270" as="targetPoint" />
          </mxGeometry>
        </mxCell>
        <mxCell id="Pvip8ezGzchFhWj7xZqE-20" value="" style="endArrow=none;html=1;rounded=0;entryX=0;entryY=0.25;entryDx=0;entryDy=0;" parent="1" source="Pvip8ezGzchFhWj7xZqE-14" target="Pvip8ezGzchFhWj7xZqE-1" edge="1">
          <mxGeometry relative="1" as="geometry">
            <mxPoint x="530" y="229.35" as="sourcePoint" />
            <mxPoint x="560" y="229.35" as="targetPoint" />
          </mxGeometry>
        </mxCell>
        <mxCell id="Pvip8ezGzchFhWj7xZqE-21" value="" style="endArrow=none;html=1;rounded=0;entryX=0.25;entryY=0;entryDx=0;entryDy=0;exitX=1;exitY=1;exitDx=0;exitDy=0;" parent="1" source="Pvip8ezGzchFhWj7xZqE-13" target="Pvip8ezGzchFhWj7xZqE-1" edge="1">
          <mxGeometry relative="1" as="geometry">
            <mxPoint x="520" y="270" as="sourcePoint" />
            <mxPoint x="680" y="270" as="targetPoint" />
          </mxGeometry>
        </mxCell>
        <mxCell id="Pvip8ezGzchFhWj7xZqE-22" value="" style="endArrow=none;html=1;rounded=0;entryX=0.5;entryY=0;entryDx=0;entryDy=0;exitX=0.311;exitY=0.99;exitDx=0;exitDy=0;exitPerimeter=0;" parent="1" source="Pvip8ezGzchFhWj7xZqE-12" target="Pvip8ezGzchFhWj7xZqE-1" edge="1">
          <mxGeometry relative="1" as="geometry">
            <mxPoint x="604" y="212" as="sourcePoint" />
            <mxPoint x="680" y="270" as="targetPoint" />
          </mxGeometry>
        </mxCell>
        <mxCell id="Pvip8ezGzchFhWj7xZqE-23" value="" style="endArrow=none;html=1;rounded=0;entryX=1;entryY=0;entryDx=0;entryDy=0;" parent="1" source="Pvip8ezGzchFhWj7xZqE-16" target="Pvip8ezGzchFhWj7xZqE-1" edge="1">
          <mxGeometry relative="1" as="geometry">
            <mxPoint x="520" y="270" as="sourcePoint" />
            <mxPoint x="680" y="270" as="targetPoint" />
          </mxGeometry>
        </mxCell>
        <mxCell id="Pvip8ezGzchFhWj7xZqE-24" value="" style="endArrow=none;html=1;rounded=0;entryX=1;entryY=0.5;entryDx=0;entryDy=0;exitX=0.925;exitY=0.288;exitDx=0;exitDy=0;exitPerimeter=0;" parent="1" source="Pvip8ezGzchFhWj7xZqE-26" target="6Uo8ekdHkGyD1nUxnTY2-1" edge="1">
          <mxGeometry relative="1" as="geometry">
            <mxPoint x="997" y="130" as="sourcePoint" />
            <mxPoint x="1160" y="150" as="targetPoint" />
          </mxGeometry>
        </mxCell>
        <mxCell id="Pvip8ezGzchFhWj7xZqE-25" value="" style="endArrow=none;html=1;rounded=0;exitX=1;exitY=1;exitDx=0;exitDy=0;entryX=0;entryY=0;entryDx=0;entryDy=0;" parent="1" source="FRmwN27znmXdulfrOmkW-1" target="Pvip8ezGzchFhWj7xZqE-26" edge="1">
          <mxGeometry relative="1" as="geometry">
            <mxPoint x="890" y="100" as="sourcePoint" />
            <mxPoint x="936" y="109" as="targetPoint" />
          </mxGeometry>
        </mxCell>
        <mxCell id="Pvip8ezGzchFhWj7xZqE-26" value="name" style="ellipse;whiteSpace=wrap;html=1;align=center;labelBackgroundColor=none;" parent="1" vertex="1">
          <mxGeometry x="900" y="110" width="100" height="40" as="geometry" />
        </mxCell>
        <mxCell id="Pvip8ezGzchFhWj7xZqE-27" value="" style="endArrow=none;html=1;rounded=0;entryX=0;entryY=0.5;entryDx=0;entryDy=0;exitX=1;exitY=0.5;exitDx=0;exitDy=0;" parent="1" source="FRmwN27znmXdulfrOmkW-2" target="Pvip8ezGzchFhWj7xZqE-26" edge="1">
          <mxGeometry relative="1" as="geometry">
            <mxPoint x="1000" y="150" as="sourcePoint" />
            <mxPoint x="1160" y="150" as="targetPoint" />
          </mxGeometry>
        </mxCell>
        <mxCell id="Pvip8ezGzchFhWj7xZqE-28" value="" style="endArrow=none;html=1;rounded=0;entryX=1;entryY=1;entryDx=0;entryDy=0;exitX=1;exitY=1;exitDx=0;exitDy=0;" parent="1" source="6Uo8ekdHkGyD1nUxnTY2-5" target="6Uo8ekdHkGyD1nUxnTY2-1" edge="1">
          <mxGeometry relative="1" as="geometry">
            <mxPoint x="1000" y="150" as="sourcePoint" />
            <mxPoint x="1160" y="150" as="targetPoint" />
          </mxGeometry>
        </mxCell>
        <mxCell id="Pvip8ezGzchFhWj7xZqE-29" value="" style="endArrow=none;html=1;rounded=0;entryX=0.5;entryY=1;entryDx=0;entryDy=0;exitX=0.5;exitY=1;exitDx=0;exitDy=0;" parent="1" source="6Uo8ekdHkGyD1nUxnTY2-3" target="6Uo8ekdHkGyD1nUxnTY2-1" edge="1">
          <mxGeometry relative="1" as="geometry">
            <mxPoint x="1000" y="150" as="sourcePoint" />
            <mxPoint x="1160" y="150" as="targetPoint" />
          </mxGeometry>
        </mxCell>
        <mxCell id="Pvip8ezGzchFhWj7xZqE-30" value="" style="endArrow=none;html=1;rounded=0;exitX=0;exitY=1;exitDx=0;exitDy=0;entryX=0;entryY=1;entryDx=0;entryDy=0;" parent="1" source="6Uo8ekdHkGyD1nUxnTY2-1" target="6Uo8ekdHkGyD1nUxnTY2-6" edge="1">
          <mxGeometry relative="1" as="geometry">
            <mxPoint x="1000" y="150" as="sourcePoint" />
            <mxPoint x="1160" y="150" as="targetPoint" />
          </mxGeometry>
        </mxCell>
        <mxCell id="Pvip8ezGzchFhWj7xZqE-31" value="" style="endArrow=none;html=1;rounded=0;exitX=0;exitY=0.5;exitDx=0;exitDy=0;entryX=0;entryY=0.5;entryDx=0;entryDy=0;" parent="1" source="6Uo8ekdHkGyD1nUxnTY2-1" target="6Uo8ekdHkGyD1nUxnTY2-15" edge="1">
          <mxGeometry relative="1" as="geometry">
            <mxPoint x="1000" y="150" as="sourcePoint" />
            <mxPoint x="1160" y="150" as="targetPoint" />
          </mxGeometry>
        </mxCell>
        <mxCell id="Pvip8ezGzchFhWj7xZqE-32" value="" style="endArrow=none;html=1;rounded=0;entryX=1;entryY=1;entryDx=0;entryDy=0;exitX=0;exitY=0;exitDx=0;exitDy=0;" parent="1" source="FRmwN27znmXdulfrOmkW-11" target="FRmwN27znmXdulfrOmkW-15" edge="1">
          <mxGeometry relative="1" as="geometry">
            <mxPoint x="990" y="260" as="sourcePoint" />
            <mxPoint x="1150" y="260" as="targetPoint" />
          </mxGeometry>
        </mxCell>
        <mxCell id="Pvip8ezGzchFhWj7xZqE-33" value="" style="endArrow=none;html=1;rounded=0;entryX=0;entryY=0.25;entryDx=0;entryDy=0;exitX=1;exitY=1;exitDx=0;exitDy=0;" parent="1" source="Pvip8ezGzchFhWj7xZqE-5" target="FRmwN27znmXdulfrOmkW-11" edge="1">
          <mxGeometry relative="1" as="geometry">
            <mxPoint x="990" y="260" as="sourcePoint" />
            <mxPoint x="1150" y="260" as="targetPoint" />
          </mxGeometry>
        </mxCell>
        <mxCell id="Pvip8ezGzchFhWj7xZqE-34" value="" style="endArrow=none;html=1;rounded=0;entryX=0;entryY=0.5;entryDx=0;entryDy=0;exitX=0.75;exitY=0;exitDx=0;exitDy=0;" parent="1" source="FRmwN27znmXdulfrOmkW-11" target="FRmwN27znmXdulfrOmkW-12" edge="1">
          <mxGeometry relative="1" as="geometry">
            <mxPoint x="990" y="260" as="sourcePoint" />
            <mxPoint x="1150" y="260" as="targetPoint" />
          </mxGeometry>
        </mxCell>
        <mxCell id="Pvip8ezGzchFhWj7xZqE-35" value="" style="endArrow=none;html=1;rounded=0;entryX=1;entryY=0.25;entryDx=0;entryDy=0;exitX=-0.004;exitY=0.409;exitDx=0;exitDy=0;exitPerimeter=0;" parent="1" source="FRmwN27znmXdulfrOmkW-14" target="FRmwN27znmXdulfrOmkW-11" edge="1">
          <mxGeometry relative="1" as="geometry">
            <mxPoint x="990" y="260" as="sourcePoint" />
            <mxPoint x="1150" y="260" as="targetPoint" />
          </mxGeometry>
        </mxCell>
        <mxCell id="Pvip8ezGzchFhWj7xZqE-36" value="" style="endArrow=none;html=1;rounded=0;entryX=0;entryY=0.75;entryDx=0;entryDy=0;exitX=0.983;exitY=0.401;exitDx=0;exitDy=0;exitPerimeter=0;" parent="1" source="FRmwN27znmXdulfrOmkW-16" target="FRmwN27znmXdulfrOmkW-11" edge="1">
          <mxGeometry relative="1" as="geometry">
            <mxPoint x="990" y="260" as="sourcePoint" />
            <mxPoint x="1080" y="300" as="targetPoint" />
          </mxGeometry>
        </mxCell>
        <mxCell id="Pvip8ezGzchFhWj7xZqE-37" value="" style="endArrow=none;html=1;rounded=0;entryX=1;entryY=1;entryDx=0;entryDy=0;" parent="1" source="FRmwN27znmXdulfrOmkW-13" target="FRmwN27znmXdulfrOmkW-11" edge="1">
          <mxGeometry relative="1" as="geometry">
            <mxPoint x="990" y="260" as="sourcePoint" />
            <mxPoint x="1150" y="260" as="targetPoint" />
          </mxGeometry>
        </mxCell>
        <mxCell id="Pvip8ezGzchFhWj7xZqE-38" style="edgeStyle=orthogonalEdgeStyle;rounded=0;orthogonalLoop=1;jettySize=auto;html=1;exitX=0.5;exitY=1;exitDx=0;exitDy=0;" parent="1" source="FRmwN27znmXdulfrOmkW-13" target="FRmwN27znmXdulfrOmkW-13" edge="1">
          <mxGeometry relative="1" as="geometry" />
        </mxCell>
        <mxCell id="Pvip8ezGzchFhWj7xZqE-39" value="" style="endArrow=none;html=1;rounded=0;entryX=0;entryY=0.5;entryDx=0;entryDy=0;exitX=1;exitY=0;exitDx=0;exitDy=0;" parent="1" source="pJCZ4jbb1nqrOX9LuIZq-1" target="pJCZ4jbb1nqrOX9LuIZq-2" edge="1">
          <mxGeometry relative="1" as="geometry">
            <mxPoint x="1410" y="580" as="sourcePoint" />
            <mxPoint x="1410" y="590" as="targetPoint" />
          </mxGeometry>
        </mxCell>
        <mxCell id="Pvip8ezGzchFhWj7xZqE-40" value="" style="endArrow=none;html=1;rounded=0;entryX=1;entryY=0.5;entryDx=0;entryDy=0;exitX=0;exitY=0.5;exitDx=0;exitDy=0;" parent="1" source="pJCZ4jbb1nqrOX9LuIZq-8" target="pJCZ4jbb1nqrOX9LuIZq-1" edge="1">
          <mxGeometry relative="1" as="geometry">
            <mxPoint x="1250" y="590" as="sourcePoint" />
            <mxPoint x="1410" y="590" as="targetPoint" />
          </mxGeometry>
        </mxCell>
        <mxCell id="Pvip8ezGzchFhWj7xZqE-41" value="" style="endArrow=none;html=1;rounded=0;exitX=1;exitY=1;exitDx=0;exitDy=0;entryX=0.327;entryY=0.048;entryDx=0;entryDy=0;entryPerimeter=0;" parent="1" source="pJCZ4jbb1nqrOX9LuIZq-1" target="pJCZ4jbb1nqrOX9LuIZq-7" edge="1">
          <mxGeometry relative="1" as="geometry">
            <mxPoint x="1250" y="590" as="sourcePoint" />
            <mxPoint x="1440" y="660" as="targetPoint" />
          </mxGeometry>
        </mxCell>
        <mxCell id="Pvip8ezGzchFhWj7xZqE-42" value="" style="endArrow=none;html=1;rounded=0;exitX=1;exitY=0;exitDx=0;exitDy=0;entryX=0;entryY=1;entryDx=0;entryDy=0;" parent="1" source="pJCZ4jbb1nqrOX9LuIZq-4" target="pJCZ4jbb1nqrOX9LuIZq-1" edge="1">
          <mxGeometry relative="1" as="geometry">
            <mxPoint x="1250" y="590" as="sourcePoint" />
            <mxPoint x="1410" y="590" as="targetPoint" />
          </mxGeometry>
        </mxCell>
        <mxCell id="Pvip8ezGzchFhWj7xZqE-43" value="" style="endArrow=none;html=1;rounded=0;entryX=0;entryY=0;entryDx=0;entryDy=0;exitX=1;exitY=1;exitDx=0;exitDy=0;" parent="1" source="pJCZ4jbb1nqrOX9LuIZq-6" target="pJCZ4jbb1nqrOX9LuIZq-1" edge="1">
          <mxGeometry relative="1" as="geometry">
            <mxPoint x="1250" y="590" as="sourcePoint" />
            <mxPoint x="1410" y="590" as="targetPoint" />
          </mxGeometry>
        </mxCell>
        <mxCell id="Pvip8ezGzchFhWj7xZqE-44" value="" style="endArrow=none;html=1;rounded=0;entryX=0;entryY=0.5;entryDx=0;entryDy=0;exitX=1;exitY=0.5;exitDx=0;exitDy=0;" parent="1" source="pJCZ4jbb1nqrOX9LuIZq-5" target="pJCZ4jbb1nqrOX9LuIZq-1" edge="1">
          <mxGeometry relative="1" as="geometry">
            <mxPoint x="1250" y="590" as="sourcePoint" />
            <mxPoint x="1410" y="590" as="targetPoint" />
          </mxGeometry>
        </mxCell>
        <mxCell id="Pvip8ezGzchFhWj7xZqE-45" value="" style="endArrow=none;html=1;rounded=0;entryX=0;entryY=1;entryDx=0;entryDy=0;exitX=0.75;exitY=0;exitDx=0;exitDy=0;" parent="1" source="FRmwN27znmXdulfrOmkW-32" target="FRmwN27znmXdulfrOmkW-39" edge="1">
          <mxGeometry relative="1" as="geometry">
            <mxPoint x="810" y="570" as="sourcePoint" />
            <mxPoint x="970" y="570" as="targetPoint" />
          </mxGeometry>
        </mxCell>
        <mxCell id="Pvip8ezGzchFhWj7xZqE-46" value="" style="endArrow=none;html=1;rounded=0;entryX=0;entryY=0.5;entryDx=0;entryDy=0;exitX=1;exitY=0.5;exitDx=0;exitDy=0;" parent="1" source="FRmwN27znmXdulfrOmkW-32" target="FRmwN27znmXdulfrOmkW-45" edge="1">
          <mxGeometry relative="1" as="geometry">
            <mxPoint x="810" y="570" as="sourcePoint" />
            <mxPoint x="970" y="570" as="targetPoint" />
          </mxGeometry>
        </mxCell>
        <mxCell id="Pvip8ezGzchFhWj7xZqE-48" value="" style="endArrow=none;html=1;rounded=0;entryX=0;entryY=0;entryDx=0;entryDy=0;exitX=0.75;exitY=1;exitDx=0;exitDy=0;" parent="1" source="FRmwN27znmXdulfrOmkW-32" target="FRmwN27znmXdulfrOmkW-44" edge="1">
          <mxGeometry relative="1" as="geometry">
            <mxPoint x="810" y="570" as="sourcePoint" />
            <mxPoint x="970" y="570" as="targetPoint" />
          </mxGeometry>
        </mxCell>
        <mxCell id="Pvip8ezGzchFhWj7xZqE-49" value="" style="endArrow=none;html=1;rounded=0;exitX=1;exitY=1;exitDx=0;exitDy=0;entryX=0;entryY=0.25;entryDx=0;entryDy=0;" parent="1" source="FRmwN27znmXdulfrOmkW-43" target="FRmwN27znmXdulfrOmkW-32" edge="1">
          <mxGeometry relative="1" as="geometry">
            <mxPoint x="810" y="570" as="sourcePoint" />
            <mxPoint x="830" y="570" as="targetPoint" />
          </mxGeometry>
        </mxCell>
        <mxCell id="Pvip8ezGzchFhWj7xZqE-50" value="" style="endArrow=none;html=1;rounded=0;exitX=1;exitY=0.5;exitDx=0;exitDy=0;entryX=0;entryY=0.5;entryDx=0;entryDy=0;" parent="1" source="FRmwN27znmXdulfrOmkW-42" target="FRmwN27znmXdulfrOmkW-32" edge="1">
          <mxGeometry relative="1" as="geometry">
            <mxPoint x="810" y="570" as="sourcePoint" />
            <mxPoint x="970" y="570" as="targetPoint" />
          </mxGeometry>
        </mxCell>
        <mxCell id="Pvip8ezGzchFhWj7xZqE-51" value="" style="endArrow=none;html=1;rounded=0;entryX=0;entryY=0.75;entryDx=0;entryDy=0;exitX=1;exitY=0.5;exitDx=0;exitDy=0;" parent="1" source="FRmwN27znmXdulfrOmkW-40" target="FRmwN27znmXdulfrOmkW-32" edge="1">
          <mxGeometry relative="1" as="geometry">
            <mxPoint x="810" y="570" as="sourcePoint" />
            <mxPoint x="970" y="570" as="targetPoint" />
          </mxGeometry>
        </mxCell>
        <mxCell id="Pvip8ezGzchFhWj7xZqE-52" value="" style="endArrow=none;html=1;rounded=0;entryX=0.5;entryY=1;entryDx=0;entryDy=0;exitX=0.5;exitY=0;exitDx=0;exitDy=0;" parent="1" source="FRmwN27znmXdulfrOmkW-32" target="FRmwN27znmXdulfrOmkW-30" edge="1">
          <mxGeometry relative="1" as="geometry">
            <mxPoint x="780" y="540" as="sourcePoint" />
            <mxPoint x="940" y="540" as="targetPoint" />
          </mxGeometry>
        </mxCell>
        <mxCell id="Pvip8ezGzchFhWj7xZqE-54" value="" style="endArrow=none;html=1;rounded=0;entryX=1;entryY=0.5;entryDx=0;entryDy=0;" parent="1" source="FRmwN27znmXdulfrOmkW-30" target="FRmwN27znmXdulfrOmkW-35" edge="1">
          <mxGeometry relative="1" as="geometry">
            <mxPoint x="780" y="540" as="sourcePoint" />
            <mxPoint x="940" y="540" as="targetPoint" />
          </mxGeometry>
        </mxCell>
        <mxCell id="Pvip8ezGzchFhWj7xZqE-55" value="" style="endArrow=none;html=1;rounded=0;entryX=0;entryY=0;entryDx=0;entryDy=0;exitX=1;exitY=1;exitDx=0;exitDy=0;" parent="1" source="FRmwN27znmXdulfrOmkW-34" target="FRmwN27znmXdulfrOmkW-30" edge="1">
          <mxGeometry relative="1" as="geometry">
            <mxPoint x="780" y="540" as="sourcePoint" />
            <mxPoint x="940" y="540" as="targetPoint" />
          </mxGeometry>
        </mxCell>
        <mxCell id="Pvip8ezGzchFhWj7xZqE-56" value="wallet" style="whiteSpace=wrap;html=1;align=center;" parent="1" vertex="1">
          <mxGeometry x="280" y="420" width="100" height="40" as="geometry" />
        </mxCell>
        <mxCell id="Pvip8ezGzchFhWj7xZqE-57" value="current balance" style="ellipse;whiteSpace=wrap;html=1;align=center;" parent="1" vertex="1">
          <mxGeometry x="220" y="340" width="100" height="40" as="geometry" />
        </mxCell>
        <mxCell id="Pvip8ezGzchFhWj7xZqE-58" value="last modified date" style="ellipse;whiteSpace=wrap;html=1;align=center;" parent="1" vertex="1">
          <mxGeometry x="160" y="440" width="100" height="40" as="geometry" />
        </mxCell>
        <mxCell id="Pvip8ezGzchFhWj7xZqE-59" value="currency" style="ellipse;whiteSpace=wrap;html=1;align=center;" parent="1" vertex="1">
          <mxGeometry x="150" y="390" width="100" height="40" as="geometry" />
        </mxCell>
        <mxCell id="Pvip8ezGzchFhWj7xZqE-60" value="" style="endArrow=none;html=1;rounded=0;exitX=1;exitY=0.5;exitDx=0;exitDy=0;entryX=0;entryY=0.75;entryDx=0;entryDy=0;" parent="1" source="Pvip8ezGzchFhWj7xZqE-58" target="Pvip8ezGzchFhWj7xZqE-56" edge="1">
          <mxGeometry relative="1" as="geometry">
            <mxPoint x="570" y="640" as="sourcePoint" />
            <mxPoint x="300" y="490" as="targetPoint" />
          </mxGeometry>
        </mxCell>
        <mxCell id="Pvip8ezGzchFhWj7xZqE-61" value="" style="endArrow=none;html=1;rounded=0;entryX=0;entryY=0.25;entryDx=0;entryDy=0;exitX=1;exitY=0.5;exitDx=0;exitDy=0;" parent="1" source="Pvip8ezGzchFhWj7xZqE-59" target="Pvip8ezGzchFhWj7xZqE-56" edge="1">
          <mxGeometry relative="1" as="geometry">
            <mxPoint x="230" y="530" as="sourcePoint" />
            <mxPoint x="330" y="480" as="targetPoint" />
          </mxGeometry>
        </mxCell>
        <mxCell id="Pvip8ezGzchFhWj7xZqE-62" value="" style="endArrow=none;html=1;rounded=0;exitX=0.25;exitY=0;exitDx=0;exitDy=0;entryX=0.5;entryY=1;entryDx=0;entryDy=0;" parent="1" source="Pvip8ezGzchFhWj7xZqE-56" target="Pvip8ezGzchFhWj7xZqE-57" edge="1">
          <mxGeometry relative="1" as="geometry">
            <mxPoint x="440" y="600" as="sourcePoint" />
            <mxPoint x="730" y="640" as="targetPoint" />
          </mxGeometry>
        </mxCell>
        <mxCell id="Pvip8ezGzchFhWj7xZqE-63" value="wallet ID" style="ellipse;whiteSpace=wrap;html=1;align=center;fontStyle=4;" parent="1" vertex="1">
          <mxGeometry x="330" y="360" width="100" height="40" as="geometry" />
        </mxCell>
        <mxCell id="Pvip8ezGzchFhWj7xZqE-64" value="" style="endArrow=none;html=1;rounded=0;exitX=0.5;exitY=0;exitDx=0;exitDy=0;entryX=0;entryY=1;entryDx=0;entryDy=0;" parent="1" source="Pvip8ezGzchFhWj7xZqE-56" target="Pvip8ezGzchFhWj7xZqE-63" edge="1">
          <mxGeometry relative="1" as="geometry">
            <mxPoint x="570" y="550" as="sourcePoint" />
            <mxPoint x="730" y="550" as="targetPoint" />
          </mxGeometry>
        </mxCell>
        <mxCell id="Pvip8ezGzchFhWj7xZqE-65" value="benefit" style="whiteSpace=wrap;html=1;align=center;" parent="1" vertex="1">
          <mxGeometry x="310" y="590" width="100" height="40" as="geometry" />
        </mxCell>
        <mxCell id="Pvip8ezGzchFhWj7xZqE-66" value="Attribute" style="ellipse;whiteSpace=wrap;html=1;align=center;" parent="1" vertex="1">
          <mxGeometry x="390" y="525" width="100" height="40" as="geometry" />
        </mxCell>
        <mxCell id="Pvip8ezGzchFhWj7xZqE-67" value="status" style="ellipse;whiteSpace=wrap;html=1;align=center;" parent="1" vertex="1">
          <mxGeometry x="180" y="555" width="100" height="40" as="geometry" />
        </mxCell>
        <mxCell id="Pvip8ezGzchFhWj7xZqE-68" value="description" style="ellipse;whiteSpace=wrap;html=1;align=center;" parent="1" vertex="1">
          <mxGeometry x="270" y="525" width="100" height="40" as="geometry" />
        </mxCell>
        <mxCell id="Pvip8ezGzchFhWj7xZqE-69" value="ID" style="ellipse;whiteSpace=wrap;html=1;align=center;fontStyle=4;" parent="1" vertex="1">
          <mxGeometry x="430" y="570" width="100" height="40" as="geometry" />
        </mxCell>
        <mxCell id="Pvip8ezGzchFhWj7xZqE-70" value="" style="endArrow=none;html=1;rounded=0;exitX=1;exitY=0.25;exitDx=0;exitDy=0;entryX=0;entryY=0.5;entryDx=0;entryDy=0;" parent="1" source="Pvip8ezGzchFhWj7xZqE-65" target="Pvip8ezGzchFhWj7xZqE-69" edge="1">
          <mxGeometry relative="1" as="geometry">
            <mxPoint x="560" y="570" as="sourcePoint" />
            <mxPoint x="720" y="570" as="targetPoint" />
          </mxGeometry>
        </mxCell>
        <mxCell id="Pvip8ezGzchFhWj7xZqE-71" value="" style="endArrow=none;html=1;rounded=0;exitX=0.75;exitY=0;exitDx=0;exitDy=0;entryX=0;entryY=1;entryDx=0;entryDy=0;" parent="1" source="Pvip8ezGzchFhWj7xZqE-65" target="Pvip8ezGzchFhWj7xZqE-66" edge="1">
          <mxGeometry relative="1" as="geometry">
            <mxPoint x="560" y="570" as="sourcePoint" />
            <mxPoint x="720" y="570" as="targetPoint" />
          </mxGeometry>
        </mxCell>
        <mxCell id="Pvip8ezGzchFhWj7xZqE-73" value="" style="endArrow=none;html=1;rounded=0;exitX=0.25;exitY=0;exitDx=0;exitDy=0;entryX=0.5;entryY=1;entryDx=0;entryDy=0;" parent="1" source="Pvip8ezGzchFhWj7xZqE-65" target="Pvip8ezGzchFhWj7xZqE-68" edge="1">
          <mxGeometry relative="1" as="geometry">
            <mxPoint x="560" y="570" as="sourcePoint" />
            <mxPoint x="720" y="570" as="targetPoint" />
          </mxGeometry>
        </mxCell>
        <mxCell id="Pvip8ezGzchFhWj7xZqE-74" value="" style="endArrow=none;html=1;rounded=0;exitX=0;exitY=0.25;exitDx=0;exitDy=0;entryX=1;entryY=1;entryDx=0;entryDy=0;" parent="1" source="Pvip8ezGzchFhWj7xZqE-65" target="Pvip8ezGzchFhWj7xZqE-67" edge="1">
          <mxGeometry relative="1" as="geometry">
            <mxPoint x="560" y="570" as="sourcePoint" />
            <mxPoint x="720" y="570" as="targetPoint" />
          </mxGeometry>
        </mxCell>
        <mxCell id="Pvip8ezGzchFhWj7xZqE-79" value="" style="ellipse;whiteSpace=wrap;html=1;align=center;aspect=fixed;fillColor=none;strokeColor=none;resizable=0;perimeter=centerPerimeter;rotatable=0;allowArrows=0;points=[];outlineConnect=1;" parent="1" vertex="1">
          <mxGeometry x="620" y="570" width="10" height="10" as="geometry" />
        </mxCell>
        <mxCell id="Pvip8ezGzchFhWj7xZqE-82" value="" style="ellipse;whiteSpace=wrap;html=1;align=center;aspect=fixed;fillColor=none;strokeColor=none;resizable=0;perimeter=centerPerimeter;rotatable=0;allowArrows=0;points=[];outlineConnect=1;" parent="1" vertex="1">
          <mxGeometry x="530" y="670" width="10" height="10" as="geometry" />
        </mxCell>
        <mxCell id="ZTagBuRmaOSPrPwAu8H9-5" value="d" style="ellipse;html=1;" parent="1" vertex="1">
          <mxGeometry x="345" y="660" width="30" height="30" as="geometry" />
        </mxCell>
        <mxCell id="cCIsjWrqllOPOkXVM5NC-1" value="exclusive offer" style="whiteSpace=wrap;html=1;align=center;" vertex="1" parent="1">
          <mxGeometry x="310" y="740" width="100" height="40" as="geometry" />
        </mxCell>
        <mxCell id="cCIsjWrqllOPOkXVM5NC-2" value="points group" style="whiteSpace=wrap;html=1;align=center;" vertex="1" parent="1">
          <mxGeometry x="120" y="740" width="100" height="40" as="geometry" />
        </mxCell>
        <mxCell id="cCIsjWrqllOPOkXVM5NC-3" value="cashback" style="whiteSpace=wrap;html=1;align=center;" vertex="1" parent="1">
          <mxGeometry x="520" y="740" width="100" height="40" as="geometry" />
        </mxCell>
        <mxCell id="cCIsjWrqllOPOkXVM5NC-7" value="ID" style="ellipse;whiteSpace=wrap;html=1;align=center;fontStyle=4;" vertex="1" parent="1">
          <mxGeometry x="10" y="780" width="100" height="40" as="geometry" />
        </mxCell>
        <mxCell id="cCIsjWrqllOPOkXVM5NC-8" value="" style="endArrow=none;html=1;rounded=0;entryX=0;entryY=0.5;entryDx=0;entryDy=0;exitX=1;exitY=0;exitDx=0;exitDy=0;" edge="1" parent="1" source="cCIsjWrqllOPOkXVM5NC-7" target="cCIsjWrqllOPOkXVM5NC-2">
          <mxGeometry relative="1" as="geometry">
            <mxPoint x="10" y="720" as="sourcePoint" />
            <mxPoint x="170" y="720" as="targetPoint" />
          </mxGeometry>
        </mxCell>
        <mxCell id="cCIsjWrqllOPOkXVM5NC-9" value="amount" style="ellipse;whiteSpace=wrap;html=1;align=center;dashed=1;" vertex="1" parent="1">
          <mxGeometry x="130" y="810" width="100" height="40" as="geometry" />
        </mxCell>
        <mxCell id="cCIsjWrqllOPOkXVM5NC-10" value="" style="endArrow=none;html=1;rounded=0;exitX=0.5;exitY=1;exitDx=0;exitDy=0;entryX=0.5;entryY=0;entryDx=0;entryDy=0;" edge="1" parent="1" source="cCIsjWrqllOPOkXVM5NC-2" target="cCIsjWrqllOPOkXVM5NC-9">
          <mxGeometry relative="1" as="geometry">
            <mxPoint x="210" y="740" as="sourcePoint" />
            <mxPoint x="370" y="740" as="targetPoint" />
          </mxGeometry>
        </mxCell>
        <mxCell id="cCIsjWrqllOPOkXVM5NC-11" value="ID" style="ellipse;whiteSpace=wrap;html=1;align=center;fontStyle=4;" vertex="1" parent="1">
          <mxGeometry x="270" y="800" width="100" height="40" as="geometry" />
        </mxCell>
        <mxCell id="cCIsjWrqllOPOkXVM5NC-13" value="" style="endArrow=none;html=1;rounded=0;entryX=0.25;entryY=1;entryDx=0;entryDy=0;exitX=0.552;exitY=-0.002;exitDx=0;exitDy=0;exitPerimeter=0;" edge="1" parent="1" source="cCIsjWrqllOPOkXVM5NC-11" target="cCIsjWrqllOPOkXVM5NC-1">
          <mxGeometry relative="1" as="geometry">
            <mxPoint x="210" y="740" as="sourcePoint" />
            <mxPoint x="370" y="740" as="targetPoint" />
          </mxGeometry>
        </mxCell>
        <mxCell id="cCIsjWrqllOPOkXVM5NC-14" value="" style="shape=link;html=1;rounded=0;entryX=0.5;entryY=1;entryDx=0;entryDy=0;exitX=0.5;exitY=0;exitDx=0;exitDy=0;" edge="1" parent="1" source="ZTagBuRmaOSPrPwAu8H9-5" target="Pvip8ezGzchFhWj7xZqE-65">
          <mxGeometry relative="1" as="geometry">
            <mxPoint x="230" y="710" as="sourcePoint" />
            <mxPoint x="390" y="710" as="targetPoint" />
          </mxGeometry>
        </mxCell>
        <mxCell id="cCIsjWrqllOPOkXVM5NC-17" value="" style="ellipse;whiteSpace=wrap;html=1;align=center;aspect=fixed;fillColor=none;strokeColor=none;resizable=0;perimeter=centerPerimeter;rotatable=0;allowArrows=0;points=[];outlineConnect=1;" vertex="1" parent="1">
          <mxGeometry x="300" y="700" width="10" height="10" as="geometry" />
        </mxCell>
        <mxCell id="cCIsjWrqllOPOkXVM5NC-19" value="" style="endArrow=none;html=1;rounded=0;entryX=0;entryY=0.5;entryDx=0;entryDy=0;exitX=0.75;exitY=0;exitDx=0;exitDy=0;" edge="1" parent="1" source="cCIsjWrqllOPOkXVM5NC-2" target="ZTagBuRmaOSPrPwAu8H9-5">
          <mxGeometry relative="1" as="geometry">
            <mxPoint x="180" y="730" as="sourcePoint" />
            <mxPoint x="340" y="730" as="targetPoint" />
          </mxGeometry>
        </mxCell>
        <mxCell id="cCIsjWrqllOPOkXVM5NC-22" value="&lt;font face=&quot;Comic Sans MS&quot;&gt;U&lt;/font&gt;" style="text;html=1;align=center;verticalAlign=middle;resizable=0;points=[];autosize=1;strokeColor=none;fillColor=none;" vertex="1" parent="1">
          <mxGeometry x="95" y="648" width="30" height="30" as="geometry" />
        </mxCell>
      </root>
    </mxGraphModel>
  </diagram>
</mxfile>
